<svg xmlns="http://www.w3.org/2000/svg" width="52" height="57" viewBox="0 0 52 57">
    <g fill="none" fill-rule="evenodd">
        <path fill="#30383C" d="M14.422 0L8.536 6.544 0 4.909l5.43 16.678 2.479 20.318L20.362 57h10.963l12.296-15.054 2.636-20.51L52 4.908l-8.458 1.635L37.434 0z"/>
        <path fill="#FFF" d="M40.536 26.862l-.758-.132a3.87 3.87 0 0 0-.735-1.25l.251-.708a.787.787 0 0 0-.356-.96l-.672-.377a.816.816 0 0 0-1.025.178l-.494.574a4.098 4.098 0 0 0-1.471 0l-.494-.577a.82.82 0 0 0-1.025-.179l-.672.382a.79.79 0 0 0-.356.959l.264.709a3.857 3.857 0 0 0-.736 1.25l-.757.13a.798.798 0 0 0-.67.782v.759c.001.385.283.714.67.78l.757.132c.164.458.413.882.736 1.25l-.252.718a.787.787 0 0 0 .357.959l.672.378a.82.82 0 0 0 1.025-.178l.494-.578c.486.088.985.088 1.47 0l.494.578a.82.82 0 0 0 1.026.178l.671-.381a.786.786 0 0 0 .344-.956l-.264-.71a3.87 3.87 0 0 0 .736-1.249l.757-.131a.798.798 0 0 0 .669-.781v-.768a.798.798 0 0 0-.656-.781zm-4.512 2.499a1.344 1.344 0 0 1-1.353-1.331c0-.734.605-1.33 1.353-1.33a1.344 1.344 0 0 1 1.36 1.324c-.001.353-.145.692-.4.942-.256.25-.602.39-.963.388l.003.007zm-.7-12.496l-.389-.65a.816.816 0 0 0-.977-.35l-.714.26a3.96 3.96 0 0 0-1.273-.722l-.134-.743a.805.805 0 0 0-.821-.66h-.761a.805.805 0 0 0-.796.656l-.134.744c-.467.16-.9.405-1.274.722l-.723-.26a.816.816 0 0 0-.977.35l-.385.66a.783.783 0 0 0 .181 1.005l.59.484c-.092.478-.092.969 0 1.447l-.59.484a.783.783 0 0 0-.188.993l.389.66a.816.816 0 0 0 .977.35l.723-.26c.375.317.807.561 1.274.722l.133.743c.068.38.404.656.796.656h.765a.805.805 0 0 0 .796-.656l.159-.73c.467-.161.899-.406 1.273-.722l.723.259a.816.816 0 0 0 .978-.35l.379-.672a.783.783 0 0 0-.17-.993l-.604-.484c.09-.478.09-.969 0-1.447l.605-.484a.783.783 0 0 0 .169-1.006v-.006zm-4.684 3.552a1.357 1.357 0 0 1-1.252-.827 1.313 1.313 0 0 1 .302-1.45c.39-.38.976-.49 1.482-.28.506.21.833.7.827 1.239a1.347 1.347 0 0 1-1.36 1.318zm-13.593 2.88l.672.378a.82.82 0 0 0 1.025-.178l.49-.575c.488.09.987.09 1.475 0l.493.578a.82.82 0 0 0 1.025.178l.672-.38a.787.787 0 0 0 .357-.96l-.264-.709c.322-.368.572-.792.735-1.25l.758-.13a.798.798 0 0 0 .669-.782v-.762a.798.798 0 0 0-.67-.781l-.757-.131a3.857 3.857 0 0 0-.735-1.25l.264-.712a.787.787 0 0 0-.357-.96l-.672-.38a.82.82 0 0 0-1.025.178l-.493.58a4.101 4.101 0 0 0-1.472 0l-.496-.58a.82.82 0 0 0-1.026-.178l-.668.38a.787.787 0 0 0-.36.96l.264.712a3.863 3.863 0 0 0-.735 1.25l-.758.131a.798.798 0 0 0-.669.781v.76c0 .384.282.713.669.78l.758.131c.163.458.413.882.735 1.25l-.264.712a.787.787 0 0 0 .36.96zm2.926-5.545c.747 0 1.353.593 1.356 1.326a1.343 1.343 0 0 1-1.345 1.336 1.344 1.344 0 0 1-1.367-1.315 1.32 1.32 0 0 1 .392-.95c.255-.253.602-.396.964-.397zm-9.87 12.496l.388.659a.816.816 0 0 0 .977.35l.733-.288a3.97 3.97 0 0 0 1.273.722l.134.744c.068.379.404.655.796.656h.774a.805.805 0 0 0 .796-.656l.133-.744a3.97 3.97 0 0 0 1.274-.722l.723.26a.816.816 0 0 0 .977-.35l.386-.66a.783.783 0 0 0-.182-1.005l-.589-.484c.09-.477.09-.967 0-1.444l.59-.484a.783.783 0 0 0 .18-1.006l-.388-.659a.816.816 0 0 0-.977-.35l-.723.26a3.964 3.964 0 0 0-1.274-.722l-.133-.744a.805.805 0 0 0-.796-.656h-.771a.805.805 0 0 0-.796.656l-.134.744c-.467.16-.899.405-1.273.722l-.726-.26a.816.816 0 0 0-.978.35l-.388.672a.783.783 0 0 0 .181 1.006l.59.484c-.091.477-.091.966 0 1.443l-.59.487a.783.783 0 0 0-.181 1.006l-.007.013zm4.674-3.555c.548 0 1.043.324 1.253.821.21.498.094 1.07-.294 1.45-.388.381-.972.495-1.479.29a1.33 1.33 0 0 1-.837-1.23 1.347 1.347 0 0 1 1.357-1.331zm7.23 9.306v-1.728a4.17 4.17 0 0 1-.512-1.352c-.274-.085-.522-.522-.755-1.328-.213-.737-.213-1.215 0-1.462a.49.49 0 0 1 .338-.169 3.69 3.69 0 0 1-.112-.443 3.922 3.922 0 0 1 0-1.803 3.912 3.912 0 0 1 1.08-1.855c.29-.314.618-.591.977-.825.294-.205.616-.369.956-.487a3.31 3.31 0 0 1 .888-.166 3.697 3.697 0 0 1 2.229.462c.43.229.792.561 1.054.966.321.067.607.247.802.506.513.625.637 1.712.392 3.199-.029.15-.067.3-.115.446a.49.49 0 0 1 .341.17c.207.246.207.724 0 1.461-.232.806-.48 1.25-.755 1.328-.09.47-.264.922-.512 1.334v1.746c0 .028.015.053.041.066a30.08 30.08 0 0 1 5.413 3.408c.444.358.7.892.697 1.456v1.561c0 .597-.493 1.081-1.101 1.081H16.96a1.091 1.091 0 0 1-1.102-1.08v-1.562a1.86 1.86 0 0 1 .697-1.46 30.078 30.078 0 0 1 5.413-3.404.072.072 0 0 0 .039-.066z"/>
    </g>
</svg>
