<svg height="57" viewBox="0 0 52 57" width="52" xmlns="http://www.w3.org/2000/svg"><g fill="none" fill-rule="evenodd"><path d="m14.422 0-5.886 6.544-8.536-1.635 5.43 16.678 2.479 20.318 12.453 15.095h10.963l12.296-15.054 2.636-20.51 5.743-16.528-8.458 1.635-6.108-6.543z" fill="#30383c"/><g fill="#fff"><path d="m32.52 20.706v1.6h4.882v15.894h-23.657v-15.894h2.812v-1.6h-4.557v19.097h27.147v-19.097z"/><path d="m25.308 19.765h5.38v5.353h-5.38zm1.385 6.013h8.797v8.753h-8.797zm-7.168-8.707h4.516v4.759h-4.516zm1.704 10.34h3.009v2.994h-3.009zm-3.01-3.644h2.358v2.347h-2.358zm-.009 7.888h2.092v2.082h-2.092z"/></g></g></svg>