<svg height="57" viewBox="0 0 52 57" width="52" xmlns="http://www.w3.org/2000/svg"><g fill="none" fill-rule="evenodd"><path d="m14.422 0-5.886 6.544-8.536-1.635 5.43 16.678 2.479 20.318 12.453 15.095h10.963l12.296-15.054 2.636-20.51 5.743-16.528-8.458 1.635-6.108-6.543z" fill="#30383c"/><path d="m36.289 16.04c.32.003.636.05.94.153a2.962 2.962 0 0 1 1.793 1.696c.127.319.19.654.204.995.081 6.403.242 12.81-.004 19.209a2.955 2.955 0 0 1 -.2.92 2.96 2.96 0 0 1 -1.657 1.648c-.321.125-.66.187-1.003.2-7.148.09-14.302.268-21.445-.002a3.092 3.092 0 0 1 -.929-.198 2.96 2.96 0 0 1 -1.657-1.648 3.001 3.001 0 0 1 -.204-.995c-.081-6.403-.242-12.81.004-19.209.019-.316.083-.626.2-.92a2.96 2.96 0 0 1 1.657-1.647 3.06 3.06 0 0 1 1.003-.203c7.099-.088 14.198 0 21.298 0zm2.061 5.026h-25.31c-.082 5.66-.184 11.323.033 16.98.013.214.056.423.136.624a2.02 2.02 0 0 0 1.126 1.119c.218.084.446.127.68.135 7.124.09 14.254.268 21.374-.002.215-.013.426-.054.628-.133.51-.2.925-.613 1.127-1.119.087-.217.129-.444.138-.677.072-5.641.206-11.287.068-16.927zm-21.483 16.9c1.967-.314 4.81-.346 6.837-2.359a2.123 2.123 0 0 0 0-3.015 2.16 2.16 0 0 0 -3.037 0c-2.028 2.013-1.609 4.166-3.8 5.373zm5.733-6.908c.655-1.345 1.84-2.956 3.392-4.496 3.054-3.033 6.378-4.658 7.418-3.627 1.038 1.033-.598 4.333-3.652 7.366-1.546 1.535-3.16 2.709-4.514 3.36a3.054 3.054 0 0 0 -.764-1.62c-.11-.113-.11-.111-.223-.22a3.286 3.286 0 0 0 -.91-.566 3.032 3.032 0 0 0 -.747-.197z" fill="#fff"/></g></svg>