<svg height="57" viewBox="0 0 52 57" width="52" xmlns="http://www.w3.org/2000/svg"><g fill="none" fill-rule="evenodd"><path d="m14.422 0-5.886 6.544-8.536-1.635 5.43 16.678 2.479 20.318 12.453 15.095h10.963l12.296-15.054 2.636-20.51 5.743-16.528-8.458 1.635-6.108-6.543z" fill="#30383c"/><path d="m18 39.855c0 1.035.856 1.874 1.91 1.874h11.72c1.055 0 1.91-.84 1.91-1.874v-23.455h-15.54zm7.77-1.938c.754 0 1.367.602 1.367 1.341 0 .74-.613 1.342-1.367 1.342-.755 0-1.368-.602-1.368-1.342s.613-1.341 1.368-1.341zm5.858-25.917h-11.717c-1.055 0-1.911.84-1.911 1.874v1.9h15.54v-1.9c-.002-1.034-.857-1.874-1.913-1.874zm-9.207 2.329a.43.43 0 0 1 -.434-.426.43.43 0 0 1 .434-.426c.239 0 .434.19.434.426a.43.43 0 0 1 -.434.426zm5.28-.114h-3.862a.315.315 0 0 1 -.318-.312c0-.173.142-.313.318-.313h3.861c.176 0 .319.14.319.313a.316.316 0 0 1 -.319.312z" fill="#fff"/></g></svg>